<svg width="24" height="24" enable-background="new 0 0 500 500" version="1.1" viewBox="0 0 499.84 499.84" xml:space="preserve" xmlns="http://www.w3.org/2000/svg"><path d="m80.544 457.78c0 22.967 18.375 41.569 41.061 41.569h256.63c22.685 0 41.06-18.602 41.06-41.569v-431.3c0-14.34-11.497-25.981-25.661-25.981s-25.666 11.642-25.666 25.981v25.981h-246.36c-22.686 0-41.061 18.604-41.061 41.572zm73.912-353.36h190.93c12.521 0 22.582 10.186 22.582 22.868v110.16c0 12.682-10.061 22.868-22.582 22.868h-190.93c-12.521 0-22.585-10.185-22.585-22.868v-110.16c0-12.682 10.064-22.868 22.585-22.868zm-22.585 223.45c0-14.34 11.499-25.984 25.662-25.984 14.164 0 25.664 11.644 25.664 25.984 0 14.341-11.5 25.979-25.664 25.979s-25.662-11.638-25.662-25.979zm92.388 0c0-14.34 11.499-25.984 25.662-25.984s25.665 11.644 25.665 25.984c0 14.341-11.501 25.979-25.665 25.979-14.165 0-25.662-11.638-25.662-25.979zm92.387 0c0-14.34 11.496-25.984 25.666-25.984 14.163 0 25.659 11.644 25.659 25.984 0 14.341-11.496 25.979-25.659 25.979-14.171 0-25.666-11.638-25.666-25.979zm-184.78 93.533c0-14.34 11.499-25.979 25.662-25.979s25.664 11.639 25.664 25.979c0 14.344-11.5 25.984-25.664 25.984s-25.662-11.639-25.662-25.984zm92.388 0c0-14.34 11.499-25.979 25.662-25.979 14.164 0 25.665 11.639 25.665 25.979 0 14.344-11.501 25.984-25.665 25.984-14.165 0-25.662-11.639-25.662-25.984zm92.387 0c0-14.34 11.496-25.979 25.666-25.979 14.163 0 25.659 11.639 25.659 25.979 0 14.344-11.496 25.984-25.659 25.984-14.171 0-25.666-11.639-25.666-25.984z" clip-rule="evenodd" fill="#010101" fill-rule="evenodd" style="stroke-width:1.1368"/></svg>
