<?xml version="1.0" encoding="UTF-8"?>
<svg xmlns="http://www.w3.org/2000/svg" xmlns:xlink="http://www.w3.org/1999/xlink" width="32pt" height="32pt" viewBox="0 0 32 32" version="1.1">
<g id="surface1">
<path style=" stroke:none;fill-rule:nonzero;fill:rgb(100%,100%,100%);fill-opacity:1;" d="M 19 0 L 13 0 C 9.511719 0 6.246094 1.355469 3.816406 3.808594 C 1.355469 6.246094 0 9.511719 0 13 C 0 19.832031 5.296875 25.449219 12 25.960938 L 12 31 C 12 31.410156 12.253906 31.78125 12.636719 31.933594 C 12.757812 31.976562 12.878906 32 13 32 C 13.277344 32 13.542969 31.886719 13.734375 31.675781 L 18.941406 26 L 19 26 C 22.488281 26 25.753906 24.644531 28.183594 22.191406 C 30.644531 19.753906 32 16.488281 32 13 C 32 5.832031 26.167969 0 19 0 Z M 26.769531 20.777344 C 24.710938 22.855469 21.953125 24 19 24 L 18.5 24 C 18.21875 24 17.953125 24.117188 17.765625 24.324219 L 14 28.429688 L 14 25 C 14 24.449219 13.550781 24 13 24 C 6.9375 24 2 19.066406 2 13 C 2 10.050781 3.144531 7.289062 5.230469 5.222656 C 7.289062 3.144531 10.046875 2 13 2 L 19 2 C 25.0625 2 30 6.933594 30 13 C 30 15.949219 28.855469 18.710938 26.769531 20.777344 Z M 26.769531 20.777344 "/>
</g>
</svg>
