<svg width="32" height="32" version="1.1" viewBox="0 0 78 78" xml:space="preserve" xmlns="http://www.w3.org/2000/svg"><path d="m59.124 40.998h-6.874v7.5h6.874c5.859 0 10.626 4.767 10.626 10.626s-4.767 10.626-10.626 10.626c-5.809 0-10.544-4.688-10.622-10.48v-22.274h10.622c9.995 0 18.126-8.129 18.126-18.12 0-9.995-8.131-18.126-18.126-18.126-9.993 0-18.123 8.131-18.123 18.127l1e-3 6.868 7.5-2e-3 -1e-3 -6.867c0-5.859 4.766-10.626 10.623-10.626 5.859 0 10.626 4.767 10.626 10.626 0 5.855-4.767 10.62-10.626 10.62h-22.124l-1e-3 -10.62c0-9.995-8.13-18.126-18.123-18.126-9.995 0-18.126 8.131-18.126 18.126 0 9.991 8.131 18.12 18.126 18.12h6.874v-7.5h-6.874c-5.859 0-10.626-4.765-10.626-10.62 0-5.859 4.767-10.626 10.626-10.626 5.857 0 10.623 4.767 10.623 10.626l1e-3 22.122h-10.624c-9.995 0-18.126 8.131-18.126 18.126s8.131 18.126 18.126 18.126c9.681 0 17.612-7.631 18.1-17.193l0.024-7.797h-7.5l-1e-3 6.864c0 5.859-4.766 10.626-10.623 10.626-5.859 0-10.626-4.767-10.626-10.626s4.767-10.626 10.626-10.626h22.126l-1e-3 10.626c0 9.995 8.13 18.126 18.123 18.126 9.995 0 18.126-8.131 18.126-18.126s-8.131-18.126-18.126-18.126zm-22.124 0v-4.002h4.002v4.002z"/></svg>
