<svg width="32" height="32" version="1.1" viewBox="0 0 512 512" xmlns="http://www.w3.org/2000/svg">
 <g>
  <title>background</title>
  <rect id="canvas_background" x="-1" y="-1" width="582" height="402" fill="none"/>
 </g>
 <g>
  <title>Layer 1</title>
  <path d="m509.37 185.04c-3.876-4.436-10.615-4.89-15.051-1.013l-67.648 59.178v-61.867c0-17.673-14.327-32-32-32h-42.667v21.333h42.667c5.891 0 10.667 4.776 10.667 10.667v85.333c0.013 2.563 0.948 5.036 2.634 6.965 3.876 4.436 10.615 4.89 15.051 1.013l67.648-59.179v230.4l-67.648-59.221c-1.941-1.696-4.43-2.632-7.008-2.635-5.891-6e-3 -10.672 4.765-10.677 10.656v85.335c0 5.891-4.776 10.667-10.667 10.667h-362.67c-5.891 0-10.667-4.776-10.667-10.667v-298.67c0-5.891 4.776-10.667 10.667-10.667h21.333v-21.333h-21.333c-17.673 0-32 14.327-32 32v298.67c0 17.673 14.327 32 32 32h362.67c17.673 0 32-14.327 32-32v-61.867l67.648 59.221c1.941 1.696 4.43 2.632 7.008 2.634 5.891 6e-3 10.672-4.765 10.677-10.656v-277.33c-0.013-2.563-0.948-5.035-2.634-6.965z"/>
  <path d="m128 0c-47.128 0-85.333 38.205-85.333 85.333s38.205 85.334 85.333 85.334c47.106-0.053 85.28-38.227 85.333-85.333 0-47.129-38.205-85.334-85.333-85.334zm0 149.33c-35.346 0-64-28.654-64-64s28.654-64 64-64c35.332 0.035 63.965 28.668 64 64 0 35.347-28.654 64-64 64z"/>
  <path d="m277.33 0c-47.128 0-85.333 38.205-85.333 85.333s38.205 85.333 85.333 85.333c47.106-0.053 85.28-38.227 85.333-85.333 1e-3 -47.128-38.204-85.333-85.333-85.333zm0 149.33c-35.346 0-64-28.654-64-64s28.654-64 64-64c35.332 0.035 63.965 28.668 64 64 0 35.347-28.653 64-64 64z"/>
  <path d="m128 42.667c-23.564 0-42.667 19.102-42.667 42.667s19.103 42.666 42.667 42.666 42.667-19.103 42.667-42.667-19.103-42.666-42.667-42.666zm0 64c-11.782 0-21.333-9.551-21.333-21.333 0-11.783 9.551-21.334 21.333-21.334s21.333 9.551 21.333 21.333-9.551 21.334-21.333 21.334z"/>
  <path d="m277.33 42.667c-23.564 0-42.667 19.102-42.667 42.667s19.103 42.666 42.667 42.666 42.667-19.103 42.667-42.667-19.103-42.666-42.667-42.666zm0 64c-11.782 0-21.333-9.551-21.333-21.333 0-11.783 9.551-21.334 21.333-21.334s21.333 9.551 21.333 21.333c1e-3 11.782-9.551 21.334-21.333 21.334z"/>
  <rect x="405.33" y="266.67" width="21.333" height="85.333"/>
  <path d="m320 224h-85.333c-5.891 0-8.523-1.6562-10.667 10.667v170.67c0 5.891 4.776 10.667 10.667 10.667h85.333c0.52057 2.144 21.28-10.039 32-32v-128c-5.3601-13.385-22.903-23.424-32-32zm12.811 149.28c0 5.891-12.28 17.099-18.171 22.459l-69.307-1.072v-149.33l73.595 1.072c-36.99-15.008 11.739 12.28 11.739 18.171v120.5z"/>
  <rect x="108.05" y="237.76" width="21.333" height="170.76" stroke="null"/>
  <rect x="108.16" y="393.99" width="92.128" height="21.333" stroke="null"/>
  <g fill="null" fill-opacity="null" stroke="null" stroke-opacity="null" stroke-width="null">
   <ellipse cx="118.71" cy="237.7" rx="10.846" ry="11.111"/>
   <circle cx="52.3" cy="274.7" r="0"/>
   <circle cx="96.743" cy="234.49" r="0"/>
   <ellipse cx="202.87" cy="404.65" rx="10.846" ry="10.83"/>
  </g>
 </g>
</svg>
