<svg width="32" height="32" version="1.1" viewBox="0 0 1792 1792" xmlns="http://www.w3.org/2000/svg">
 <path d="m433.24 1016.8-107.94 107.94q-44.887-110.08-44.887-228.71v-136.8q0-27.787 20.306-48.093 20.306-20.306 48.093-20.306 27.787 0 48.093 20.306 20.306 20.306 20.306 48.093v136.8q0 56.643 16.031 120.77zm1190.6-643.38-385.81 385.81v136.8q0 141.07-100.46 241.53t-241.53 100.46q-58.78 0-116.49-20.306l-102.6 102.6q103.67 54.505 219.09 54.505 197.72 0 338.25-140.54 140.54-140.54 140.54-338.25v-136.8q0-27.787 20.306-48.093 20.306-20.306 48.093-20.306t48.093 20.306q20.306 20.306 20.306 48.093v136.8q0 236.19-157.64 410.93-157.64 174.74-389.55 200.39v141.07h273.6q27.787 0 48.093 20.306 20.306 20.306 20.306 48.093t-20.306 48.093q-20.306 20.306-48.093 20.306h-683.99q-27.787 0-48.093-20.306-20.306-20.306-20.306-48.093t20.306-48.093q20.306-20.306 48.093-20.306h273.6v-141.07q-133.59-13.894-251.15-86.568l-271.46 271.46q-10.687 10.687-24.581 10.687t-24.581-10.687l-87.636-87.636q-10.687-10.687-10.687-24.581t10.687-24.581l1318.8-1318.8q10.687-10.687 24.581-10.687t24.581 10.687l87.636 87.636q10.687 10.687 10.687 24.581t-10.687 24.581zm-406.12-141.07-663.68 663.68v-547.19q0-141.07 100.46-241.53t241.53-100.46q109.01 0 197.18 63.055 88.17 63.055 124.51 162.45z" style="stroke-width:1.0687"/>
</svg>
