<svg width="32" height="32" version="1.1" viewBox="0 0 1792 1792" xmlns="http://www.w3.org/2000/svg">
 <path d="m1512.8 758.94v137.06q0 236.65-157.94 411.72-157.94 175.07-390.3 200.77v141.34h274.12q27.841 0 48.186 20.345t20.345 48.186q0 27.841-20.345 48.186t-48.186 20.345h-685.31q-27.841 0-48.186-20.345-20.345-20.345-20.345-48.186 0-27.841 20.345-48.186 20.345-20.345 48.186-20.345h274.12v-141.34q-232.36-25.699-390.3-200.77-157.94-175.07-157.94-411.72v-137.06q0-27.841 20.345-48.186 20.345-20.345 48.186-20.345 27.841 0 48.186 20.345 20.345 20.345 20.345 48.186v137.06q0 198.1 140.81 338.91 140.81 140.81 338.91 140.81 198.1 0 338.91-140.81 140.81-140.81 140.81-338.91v-137.06q0-27.841 20.345-48.186 20.345-20.345 48.186-20.345 27.841 0 48.186 20.345 20.345 20.345 20.345 48.186zm-274.12-411.18v548.25q0 141.34-100.65 242-100.65 100.65-242 100.65-141.34 0-242-100.65-100.65-100.65-100.65-242v-548.25q0-141.34 100.65-242t242-100.65q141.34 0 242 100.65 100.65 100.65 100.65 242z" style="stroke-width:1.0708"/>
</svg>
