<svg width="24" height="24" data-name="Layer 1" version="1.1" viewBox="0 0 48 48" xmlns="http://www.w3.org/2000/svg">
 <path d="m12.401 30.566a5.837 5.837 0 0 0 5.837-5.837v-4.5018l6.1361-6.1361a1.4601 1.4601 0 0 0-2.0648-2.0648l-4.0713 4.0713v-3.0425a5.837 5.837 0 0 0-11.674 0v11.674a5.7932 5.7932 0 0 0 0.56181 2.4807l-1.0871 1.0871a7.2452 7.2452 0 0 1-0.93392-3.5679 1.4592 1.4592 0 0 0-2.9185 0 10.156 10.156 0 0 0 1.7365 5.6838l-3.4949 3.5022a1.4601 1.4601 0 1 0 2.0648 2.0648l3.3927-3.3927a10.171 10.171 0 0 0 5.0563 2.2399v3.0352h-0.72962a1.4592 1.4592 0 0 0 0 2.9185h4.3777a1.4592 1.4592 0 0 0 0-2.9185h-0.72962v-3.0352a10.215 10.215 0 0 0 8.7555-10.098 1.4592 1.4592 0 0 0-2.9185 0 7.2962 7.2962 0 0 1-11.74 5.7786l1.0434-1.0434a5.837 5.837 0 0 0 3.4 1.1017zm2.9185-5.837a2.9185 2.9185 0 0 1-2.9185 2.9185 2.9185 2.9185 0 0 1-1.2768-0.30644l4.1953-4.1953zm-5.837 0v-11.674a2.9185 2.9185 0 0 1 5.837 0v5.961l-5.837 5.837v-0.12404z" style="stroke-width:.72962"/>
 <path d="m35.438 30.651a5.9129 5.9129 0 0 0 5.9129-5.9129v-4.5603l6.2159-6.2159a1.479 1.479 0 0 0-2.0917-2.0917l-4.1242 4.1242v-3.0821a5.9129 5.9129 0 0 0-11.826 0v11.826a5.8685 5.8685 0 0 0 0.56912 2.513l-1.1013 1.1013a7.3394 7.3394 0 0 1-0.94606-3.6142 1.4782 1.4782 0 0 0-2.9564 0 10.288 10.288 0 0 0 1.7591 5.7577l-3.5403 3.5477a1.479 1.479 0 1 0 2.0917 2.0917l3.4369-3.4369a10.303 10.303 0 0 0 5.122 2.2691v3.0747h-0.73911a1.4782 1.4782 0 0 0 0 2.9564h4.4347a1.4782 1.4782 0 0 0 0-2.9564h-0.73911v-3.0747a10.348 10.348 0 0 0 8.8693-10.229 1.4782 1.4782 0 0 0-2.9564 0 7.3911 7.3911 0 0 1-11.892 5.8538l1.0569-1.0569a5.9129 5.9129 0 0 0 3.4443 1.1161zm2.9564-5.9129a2.9564 2.9564 0 0 1-2.9564 2.9564 2.9564 2.9564 0 0 1-1.2934-0.31043l4.2499-4.2499zm-5.9129 0v-11.826a2.9564 2.9564 0 0 1 5.9129 0v6.0385l-5.9129 5.9129v-0.12565z" style="stroke-width:.73911"/>
</svg>
