<svg width="32" height="32" version="1.1" viewBox="0 0 512 512" xml:space="preserve" xmlns="http://www.w3.org/2000/svg"><polygon id="XMLID_18_" points="110.3 452.1 110.3 471.8 193 471.8 193 452.1 193 414.7 110.3 414.7"/><polygon id="XMLID_17_" points="6 433.4 6 452.1 6 471.8 88.6 471.8 88.6 452.1 88.6 433.4 88.6 414.7 88.6 396 88.6 377.2 88.6 339.8 6 339.8 6 377.2 6 396 6 414.7"/><polygon id="XMLID_16_" points="6 190 6 208.7 88.6 208.7 88.6 190 88.6 152.5 6 152.5"/><polygon id="XMLID_15_" points="88.6 227.4 6 227.4 6 264.9 6 283.6 6 302.3 6 321.1 88.6 321.1 88.6 302.3 88.6 283.6 88.6 264.9"/><polygon id="XMLID_14_" points="193 227.4 110.3 227.4 110.3 264.9 110.3 283.6 110.3 302.3 110.3 321.1 193 321.1 193 302.3 193 283.6 193 264.9"/><polygon id="XMLID_13_" points="110.3 377.2 110.3 396 193 396 193 377.2 193 339.8 110.3 339.8"/><polygon id="XMLID_12_" points="193 115.1 110.3 115.1 110.3 152.5 110.3 171.3 110.3 190 110.3 208.7 193 208.7 193 190 193 171.3 193 152.5"/><polygon id="XMLID_11_" points="110.3 77.6 110.3 96.4 193 96.4 193 77.6 193 40.2 110.3 40.2"/><rect id="XMLID_10_" x="214.7" y="339.8" width="82.6" height="18.7"/><polygon id="XMLID_9_" points="297.3 377.2 214.7 377.2 214.7 414.7 214.7 433.4 214.7 452.1 214.7 471.8 297.3 471.8 297.3 452.1 297.3 433.4 297.3 414.7"/><rect id="XMLID_8_" x="319" y="227.4" width="82.6" height="18.7"/><polygon id="XMLID_7_" points="401.7 396 401.7 377.2 401.7 339.8 319 339.8 319 377.2 319 396 319 414.7 319 433.4 319 452.1 319 471.8 401.7 471.8 401.7 452.1 401.7 433.4 401.7 414.7"/><polygon id="XMLID_6_" points="319 302.3 319 321.1 401.7 321.1 401.7 302.3 401.7 264.9 319 264.9"/><polygon id="XMLID_5_" points="423.4 227.4 423.4 246.2 506 246.2 506 227.4 506 190 423.4 190"/><rect id="XMLID_4_" x="423.4" y="77.6" width="82.6" height="18.7"/><polygon id="XMLID_3_" points="423.4 152.5 423.4 171.3 506 171.3 506 152.5 506 115.1 423.4 115.1"/><polygon id="XMLID_2_" points="506 264.9 423.4 264.9 423.4 302.3 423.4 321.1 423.4 339.8 423.4 358.5 506 358.5 506 339.8 506 321.1 506 302.3"/><polygon id="XMLID_1_" points="506 377.2 423.4 377.2 423.4 414.7 423.4 433.4 423.4 452.1 423.4 471.8 506 471.8 506 452.1 506 433.4 506 414.7"/></svg>
