<svg width="24" height="24" version="1.1" viewBox="0 0 48 48" xml:space="preserve" xmlns="http://www.w3.org/2000/svg"><g id="Icons"><g transform="matrix(1.5853 0 0 1.5853 -14.161 -14.112)"><path d="m19.865 20.138c-2.1284 0-3.8604 1.7324-3.8604 3.8604 0 2.1289 1.7319 3.8613 3.8604 3.8613s3.8604-1.7324 3.8604-3.8613c1e-5 -2.1279-1.7319-3.8604-3.8604-3.8604zm0 6.6123c-1.5176 0-2.7524-1.2344-2.7524-2.752s1.2349-2.752 2.7524-2.752 2.7524 1.2344 2.7524 2.752-1.2349 2.752-2.7524 2.752z" style="fill:#303030"/><path d="m28.447 15.312h-17.165c-1.3621 0-2.4766 1.1144-2.4766 2.4766v12.433c0 1.3616 1.1038 2.4653 2.4653 2.4653h17.176c0.98187 0 1.7778-0.79596 1.7778-1.7778v-4.9556-0.0029-8.8608c0-0.98187-0.79596-1.7778-1.7778-1.7778zm-7.3711 2.4522h-5.772c-0.19336 0-0.3501-0.15625-0.3501-0.34961s0.15674-0.34961 0.3501-0.34961h5.772c0.19336 0 0.3501 0.15625 0.3501 0.34961s-0.15674 0.34961-0.3501 0.34961zm3.3501 6.2334c0 2.5146-2.0459 4.5606-4.5606 4.5606s-4.5606-2.0459-4.5606-4.5606 2.0459-4.5596 4.5606-4.5596 4.5606 2.0449 4.5606 4.5596zm9.8e-4 -6.2334h-1.396c-0.19336 0-0.3501-0.15625-0.3501-0.34961s0.15674-0.34961 0.3501-0.34961h1.396c0.19336 0 0.3501 0.15625 0.3501 0.34961s-0.15674 0.34961-0.3501 0.34961z" style="fill:#303030"/><path d="m38.011 18.028h-2.333c-0.26465 0-0.45459 0.0625-0.68604 0.22852l-4.0674 3.1056v5.2962l4.0415 3.0591c0.24072 0.18359 0.43359 0.25098 0.71191 0.25098h2.333c0.65234 0 1.1831-0.53027 1.1831-1.1826v-9.5752c1e-5 -0.65235-0.53076-1.1826-1.1831-1.1826z" style="fill:#303030"/></g></g></svg>
