<?xml version="1.0" encoding="UTF-8" standalone="no"?>
<svg
   xmlns:dc="http://purl.org/dc/elements/1.1/"
   xmlns:cc="http://creativecommons.org/ns#"
   xmlns:rdf="http://www.w3.org/1999/02/22-rdf-syntax-ns#"
   xmlns:svg="http://www.w3.org/2000/svg"
   xmlns="http://www.w3.org/2000/svg"
   xmlns:sodipodi="http://sodipodi.sourceforge.net/DTD/sodipodi-0.dtd"
   xmlns:inkscape="http://www.inkscape.org/namespaces/inkscape"
   width="24"
   height="24"
   version="1.1"
   viewBox="0 0 512.01 512.01"
   id="svg24"
   sodipodi:docname="security-on.svg">
  <metadata
     id="metadata28">
    <rdf:RDF>
      <cc:Work
         rdf:about="">
        <dc:format>image/svg+xml</dc:format>
        <dc:type
           rdf:resource="http://purl.org/dc/dcmitype/StillImage" />
      </cc:Work>
    </rdf:RDF>
  </metadata>
  <sodipodi:namedview
     pagecolor="#ffffff"
     bordercolor="#666666"
     borderopacity="1"
     objecttolerance="10"
     gridtolerance="10"
     guidetolerance="10"
     inkscape:pageopacity="0"
     inkscape:pageshadow="2"
     inkscape:window-width="640"
     inkscape:window-height="480"
     id="namedview26"
     showgrid="false" />
  <defs
     id="defs7">
    <linearGradient
       id="SVGID_1_"
       x1="91.033"
       x2="350.06"
       y1="276.87"
       y2="276.87"
       gradientTransform="scale(1.1608 .86151)"
       gradientUnits="userSpaceOnUse">
      <stop
         stop-color="#FF7BAC"
         offset="0"
         id="stop2" />
      <stop
         stop-color="#0ff"
         offset="1"
         id="stop4" />
    </linearGradient>
  </defs>
  <g
     id="g12">
    <title
       id="title9">background</title>
    <rect
       id="canvas_background"
       x="-1"
       y="-1"
       width="582"
       height="402"
       fill="none" />
  </g>
  <g
     transform="matrix(1.2342 0 0 1.2371 -59.958 -60.697)"
     id="g22">
    <title
       id="title14">Layer 1</title>
    <path
       d="m371.99 461.68h-231.99c-18.966 0-34.34-15.375-34.34-34.34v-154.47c0-18.966 15.374-34.34 34.34-34.34h231.99c18.965 0 34.339 15.375 34.339 34.34v154.47c0 18.965-15.374 34.34-34.339 34.34z"
       fill="url(#SVGID_1_)"
       style="fill:url(#SVGID_1_)"
       id="path16" />
    <path
       d="m377.52 224.3h-40v-53.116c0-44.587-36.274-80.861-80.86-80.861-44.587 0-80.861 36.274-80.861 80.861v53.116h-40v-53.116c0-66.643 54.218-120.86 120.86-120.86s120.86 54.218 120.86 120.86z"
       fill="#3f5eab"
       id="path18" />
    <path
       d="m291 327.84c0-19.33-15.67-35-35-35s-35 15.67-35 35c0 10.8 4.895 20.453 12.582 26.873l-11.732 41.986h68.01l-11.677-41.788c7.824-6.419 12.817-16.161 12.817-27.071z"
       fill="#3f5eab"
       id="path20" />
    <path
       style="fill:#ffcc00;stroke-width:5.56675"
       d="m 10.062431,20.102138 c 3.71e-4,-0.0196 0.147473,-0.56149 0.326894,-1.204208 l 0.326219,-1.168578 -0.122529,-0.128334 C 10.399662,17.398506 10.2975,17.252652 10.190865,17.026876 10.050188,16.729025 9.997732,16.494881 9.9969967,16.16152 9.9950662,15.286336 10.53539,14.542355 11.387173,14.247362 11.592567,14.176229 11.653398,14.16839 12,14.16839 c 0.347438,0 0.406937,0.0077 0.612827,0.07942 0.388319,0.135252 0.68901,0.340363 0.933335,0.63666 0.668209,0.810345 0.590601,2.033087 -0.175015,2.75744 -0.04867,0.04604 -0.08849,0.09795 -0.08849,0.115351 0,0.0257 0.588611,2.157163 0.643609,2.330623 0.01496,0.04717 -0.08955,0.04988 -1.924348,0.04988 -1.533488,0 -1.940022,-0.0075 -1.93949,-0.03563 z"
       id="path857"
       transform="matrix(17.285489,0,0,17.244968,48.580457,49.06394)" />
    <path
       style="fill:#ffcc00;stroke-width:5.56675"
       d="m 5.0736342,8.3530039 c 0,-1.4621151 0.00839,-1.8729458 0.043815,-2.1448931 C 5.3842669,4.1596783 6.4911322,2.3915098 8.2358243,1.226643 8.9884372,0.72415109 9.9103154,0.36105908 10.888361,0.18191201 c 0.46591,-0.08533992 1.49632,-0.10667594 1.995249,-0.0413143 3.22918,0.423035 5.707652,2.93315979 6.085491,6.16320979 0.03359,0.2871212 0.04278,0.7407617 0.04278,2.1116947 V 10.16152 H 17.871734 16.731591 L 16.731098,8.5154394 C 16.730608,6.8780899 16.71637,6.5424302 16.629535,6.1209894 16.423338,5.1202355 15.844173,4.1455476 15.068998,3.4947272 12.892429,1.6673291 9.6555301,2.1488963 8.0964248,4.5320665 7.8008588,4.983854 7.5545622,5.5905899 7.4341841,6.1634543 7.3716906,6.4608533 7.3694188,6.52718 7.3604606,8.3159145 L 7.3512176,10.16152 H 6.2124259 5.0736342 Z"
       id="path859"
       transform="matrix(17.285489,0,0,17.244968,48.580457,49.06394)" />
    <path
       style="fill:#ffcc00;stroke-width:5.56675"
       d="M 5.0850707,8.3159145 C 5.1050439,6.4508557 5.1175054,6.2043634 5.2165625,5.7149644 5.4845446,4.3909796 6.1040334,3.2199951 7.0543094,2.2411753 8.1287299,1.1344821 9.4019917,0.46529025 10.973872,0.18115975 c 0.148878,-0.0269109 0.473372,-0.0386419 1.068883,-0.0386419 0.953285,0 1.164756,0.0260558 1.880014,0.231641 1.995839,0.57366002 3.606662,1.97014405 4.467297,3.87287205 0.266419,0.5890096 0.498082,1.4464204 0.562199,2.0807601 0.01585,0.1567696 0.03753,1.0834917 0.04819,2.0593824 L 19.01984,10.16152 H 17.875716 16.731591 V 8.4970817 c 0,-2.0299228 -0.01648,-2.2358408 -0.231819,-2.8961316 -0.519578,-1.5931944 -1.849025,-2.7754714 -3.530651,-3.139808 -0.260413,-0.05642 -0.380738,-0.064843 -0.926366,-0.064843 -0.545221,0 -0.666146,0.00845 -0.926365,0.064746 C 10.012405,2.6998733 9.0593099,3.2777564 8.3832981,4.11818 7.925164,4.6877362 7.6414002,5.2772312 7.4362893,6.0855107 c -0.058706,0.2313406 -0.062451,0.3285104 -0.082961,2.152019 -0.011813,1.0503563 -0.022927,1.9129453 -0.024696,1.9168643 -0.00177,0.0039 -0.5117418,0.0071 -1.1332721,0.0071 H 5.0653058 Z"
       id="path861"
       transform="matrix(17.285489,0,0,17.244968,48.580457,49.06394)" />
    <path
       style="fill:#ffcc00;stroke-width:5.56675"
       d="M 5.0759709,9.2280285 C 5.0772561,8.7146081 5.088616,7.8199525 5.1012152,7.239905 5.1203922,6.3570194 5.1338098,6.1342136 5.1836078,5.871734 5.4536619,4.4483088 6.0668176,3.2583286 7.0543094,2.2411753 8.1287299,1.1344821 9.4019917,0.46529025 10.973872,0.18115975 c 0.148878,-0.0269109 0.473372,-0.0386419 1.068883,-0.0386419 0.944854,0 1.102541,0.0179066 1.770993,0.20110895 2.059153,0.56435113 3.698468,1.9626168 4.576318,3.9034041 0.262879,0.5811831 0.495678,1.4377265 0.561654,2.0665083 0.01563,0.1489311 0.03743,1.0756532 0.04846,2.0593824 L 19.02023,10.16152 H 17.878079 16.735923 L 16.723369,8.3016627 C 16.709357,6.2257964 16.710822,6.2436066 16.502815,5.620727 15.956921,3.9860409 14.662514,2.8305801 12.961968,2.4599664 12.70912,2.4048612 12.585505,2.3962993 12.042755,2.3962993 c -0.688919,0 -0.942502,0.036614 -1.482185,0.2140077 C 10.200642,2.7286153 9.6118675,3.0288983 9.2937386,3.2564081 8.8343675,3.584927 8.3053226,4.154949 8.016523,4.6325493 7.7936706,5.0010904 7.5772302,5.5380921 7.4481347,6.0427553 L 7.3752211,6.327791 7.3533789,8.2375297 c -0.012013,1.0503563 -0.023219,1.9129453 -0.024903,1.9168643 -0.00168,0.0039 -0.5097113,0.0071 -1.1289512,0.0071 H 5.0736342 Z"
       id="path863"
       transform="matrix(17.285489,0,0,17.244968,48.580457,49.06394)" />
    <path
       style="fill:#ffcc00;stroke-width:5.56675"
       d="M 5.0842394,8.3028379 C 5.1064175,6.2252423 5.1172452,6.0780003 5.3007333,5.3588072 5.7306703,3.6736421 6.7777286,2.2164697 8.2660333,1.2320524 9.1156994,0.67005309 10.249384,0.25671107 11.219067,0.155374 c 0.452765,-0.0473163 1.627414,-0.0215252 1.978083,0.0434317 2.112846,0.39137744 3.878891,1.6499685 4.927565,3.5116815 0.411838,0.7311375 0.737579,1.7561031 0.827267,2.603052 0.01577,0.1489311 0.03766,1.0756532 0.04864,2.0593824 l 0.01997,1.7885984 H 17.878584 16.736579 L 16.724171,8.3301663 C 16.710277,6.2794102 16.706245,6.2297128 16.504809,5.6266238 16.258976,4.8906074 15.901766,4.3131797 15.35033,3.7604106 14.659939,3.068351 13.85925,2.6395749 12.897862,2.4470921 12.501532,2.3677414 11.520604,2.3752957 11.123543,2.4607566 9.2756437,2.8584861 7.9217424,4.1759427 7.4499852,6.0354294 L 7.3758121,6.327791 7.3536996,8.2375297 c -0.012162,1.0503563 -0.023501,1.9129453 -0.025198,1.9168643 -0.0017,0.0039 -0.5118147,0.0071 -1.1335945,0.0071 H 5.0643982 Z"
       id="path865"
       transform="matrix(17.285489,0,0,17.244968,48.580457,49.06394)" />
    <path
       style="fill:#ffcc00;stroke-width:5.56675"
       d="M 5.0756935,9.0855107 C 5.0788041,7.460172 5.1160511,6.232662 5.171481,5.9287411 5.3829641,4.7691839 5.8291513,3.7543856 6.5370226,2.8229832 6.9348575,2.2995204 7.6521446,1.6370824 8.2580121,1.2335934 9.0717403,0.6916757 10.239097,0.2621662 11.179399,0.15871716 c 0.409222,-0.0450213 1.461541,-0.0375643 1.816412,0.0128715 2.112962,0.30030366 3.981147,1.56789584 5.075407,3.44374194 0.442224,0.7580868 0.785293,1.8084237 0.88131,2.6982086 0.01607,0.1489311 0.03808,1.0756532 0.0489,2.0593824 l 0.01968,1.7885984 h -1.14148 -1.14148 L 16.724207,8.3301663 C 16.708746,6.2998883 16.704182,6.2419616 16.513646,5.6579572 15.9718,3.9971627 14.607572,2.7862498 12.896828,2.4476068 12.539422,2.3768581 11.554757,2.3774838 11.187648,2.448693 10.255156,2.6295715 9.3871972,3.0888271 8.7256022,3.7514149 8.0948514,4.383112 7.7063421,5.0736134 7.4640914,5.9935103 L 7.3760602,6.327791 7.3539672,8.2375297 c -0.012151,1.0503563 -0.023546,1.9129453 -0.025322,1.9168643 -0.00178,0.0039 -0.5098802,0.0071 -1.1291201,0.0071 H 5.0736342 Z"
       id="path867"
       transform="matrix(17.285489,0,0,17.244968,48.580457,49.06394)" />
    <path
       style="fill:#ffcc00;stroke-width:5.56675"
       d="M 5.0782552,8.9002375 C 5.0862893,7.1317337 5.1139949,6.238615 5.1704345,5.9287411 5.3899793,4.7233616 5.8823639,3.6353969 6.6281312,2.7078385 7.05868,2.1723375 7.845136,1.4786763 8.4228029,1.1249222 9.2325868,0.62902304 10.296078,0.25685269 11.187648,0.15736068 c 0.397312,-0.0443368 1.444127,-0.0361174 1.804671,0.0141699 1.221883,0.17042314 2.46082,0.71460862 3.443604,1.51255362 0.348094,0.2826256 0.895077,0.8527068 1.165106,1.2143061 0.653959,0.8757263 1.10121,1.9151073 1.297844,3.016099 0.07224,0.4044755 0.09763,1.1354996 0.108179,3.1140143 l 0.006,1.1330164 h -1.14075 -1.14075 l -0.0011,-1.4038003 C 16.729194,6.98112 16.701674,6.3727779 16.604814,5.9787936 16.16678,4.1970579 14.733951,2.8247019 12.930788,2.4598311 12.501646,2.372994 11.601448,2.3738518 11.152653,2.4615253 10.268688,2.6342106 9.4504495,3.0614055 8.7974012,3.6911815 8.1283328,4.3364067 7.7089644,5.0604656 7.4650492,5.9915487 L 7.376964,6.327791 7.364836,7.9239905 C 7.3581656,8.8019002 7.3453018,9.6644893 7.33625,9.8408551 L 7.319792,10.16152 H 6.1961586 5.0725253 Z"
       id="path869"
       transform="matrix(17.285489,0,0,17.244968,48.580457,49.06394)" />
    <path
       style="fill:#ffcc00;stroke-width:5.56675"
       d="M 5.0832211,8.3016627 C 5.1029001,6.3556378 5.1141625,6.1648894 5.2452041,5.5581948 5.3472329,5.0858235 5.546274,4.5329421 5.7993241,4.0190024 6.1849929,3.2357171 6.564636,2.7144707 7.2014458,2.0939037 8.1593971,1.1603863 9.2849704,0.54862928 10.575827,0.25990345 11.091914,0.14447043 11.418767,0.12019917 12.24093,0.1362574 c 0.66092,0.0129089 0.781565,0.022805 1.098737,0.0901258 1.485804,0.31536625 2.677874,0.9669542 3.695986,2.020233 0.974245,1.0078955 1.58399,2.1968912 1.851738,3.610866 0.06287,0.3320186 0.07616,0.5059955 0.09688,1.2684085 0.01321,0.4859858 0.02483,1.3678148 0.02581,1.95962 l 0.0018,1.0760093 h -1.140142 -1.140143 l -0.001,-1.3182896 C 16.729405,7.2956839 16.697809,6.4184773 16.631853,6.1021411 16.514765,5.5405736 16.202327,4.8345891 15.855229,4.3472876 15.607728,3.9998124 15.109013,3.5016017 14.76435,3.2575129 14.221459,2.8730388 13.583414,2.5953494 12.94662,2.4664024 12.707133,2.4179075 12.547077,2.40694 12.074046,2.4066109 11.137816,2.4059596 10.661149,2.5161155 9.8884293,2.9116984 8.8887227,3.423484 8.0890609,4.3063283 7.6720145,5.3586698 7.4590879,5.8959517 7.4070502,6.1411921 7.3817016,6.7268409 7.3688092,7.0247031 7.357284,7.821224 7.3560901,8.496887 7.3548961,9.1725503 7.3456238,9.8235004 7.335485,9.9434429 L 7.3170507,10.16152 H 6.190732 5.0644134 Z"
       id="path871"
       transform="matrix(17.285489,0,0,17.244968,48.580457,49.06394)" />
    <path
       style="fill:#ffffff;stroke-width:5.56675"
       d="M 5.0748928,8.9429929 C 5.0765164,7.3710043 5.1134834,6.2330095 5.173685,5.901769 5.2943839,5.2376605 5.4827686,4.6635939 5.7821766,4.0475059 6.1290757,3.3336961 6.4793242,2.8329462 7.0258791,2.2693858 8.094484,1.1675323 9.2669367,0.52698599 10.795156,0.2101163 c 0.357967,-0.074223 1.63141,-0.10761073 2.09149,-0.0548358 1.224779,0.14049231 2.50524,0.68778428 3.517653,1.503509 0.356344,0.2871145 0.908499,0.8556557 1.173816,1.2086505 0.75567,1.0053927 1.238182,2.2084181 1.376453,3.4318474 0.01595,0.1410926 0.03746,1.0678147 0.04782,2.0593824 l 0.01882,1.8028502 H 17.8764 16.731591 L 16.730694,8.9287411 C 16.72959,7.4158948 16.694358,6.4067527 16.632124,6.1055242 16.439527,5.1732983 15.86201,4.1882922 15.139792,3.5602193 14.552306,3.049316 13.94064,2.7245329 13.170095,2.5143462 l -0.32924,-0.089809 -0.783848,-8.518e-4 C 11.29622,2.422859 11.264172,2.4251167 10.967674,2.5004295 9.3467131,2.9121675 8.0995009,4.0605643 7.584888,5.6152019 7.3787214,6.2380281 7.3799588,6.2241378 7.3652334,8.0807601 7.3579596,8.9978622 7.3449306,9.8412114 7.3362801,9.9548694 L 7.3205518,10.16152 H 6.197093 5.0736342 Z"
       id="path873"
       transform="matrix(17.285489,0,0,17.244968,48.580457,49.06394)" />
    <path
       style="fill:#ffffff;stroke-width:1.39169"
       d=""
       id="path875"
       transform="matrix(17.285489,0,0,17.244968,48.580457,49.06394)" />
    <path
       style="fill:#ffffff;stroke-width:1.39169"
       d="m 19.019966,9.6983789 c -0.0029,-0.2544171 -0.0054,-0.8749041 -0.0055,-1.3788598 -1.35e-4,-1.1571071 -0.01011,-1.699195 -0.03599,-1.9566632 -0.02719,-0.2704505 -0.08738,-0.617329 -0.158876,-0.915677 -0.204564,-0.8535757 -0.585286,-1.6952762 -1.085669,-2.4001984 -0.03708,-0.052235 -0.06581,-0.096576 -0.06385,-0.098536 0.0039,-0.00395 0.106773,0.1394978 0.194903,0.2718934 0.247569,0.3719194 0.489222,0.8320526 0.656786,1.2505938 0.261465,0.6530878 0.418427,1.3133518 0.478555,2.0130641 0.02605,0.3031793 0.02932,0.5628602 0.02709,2.152019 -0.0017,1.1854952 -0.0033,1.4219732 -0.0075,1.0623639 z"
       id="path877"
       transform="matrix(17.285489,0,0,17.244968,48.580457,49.06394)" />
    <path
       style="fill:#ffffff;stroke-width:1.39169"
       d=""
       id="path879"
       transform="matrix(17.285489,0,0,17.244968,48.580457,49.06394)" />
    <path
       style="fill:#ffffff;stroke-width:1.39169"
       d="m 18.998513,7.8094117 c -0.0076,-0.578589 -0.02331,-1.2102016 -0.03689,-1.4821853 l -0.0032,-0.064133 0.0095,0.078385 c 0.02486,0.2041742 0.04177,0.8745804 0.0381,1.5106888 l -0.0021,0.3705464 z"
       id="path881"
       transform="matrix(17.285489,0,0,17.244968,48.580457,49.06394)" />
    <path
       style="fill:#ffffff;stroke-width:1.39169"
       d=""
       id="path883"
       transform="matrix(17.285489,0,0,17.244968,48.580457,49.06394)" />
    <path
       style="fill:#ffffff;stroke-width:1.39169"
       d=""
       id="path885"
       transform="matrix(17.285489,0,0,17.244968,48.580457,49.06394)" />
    <path
       style="fill:#ffffff;stroke-width:1.39169"
       d=""
       id="path887"
       transform="matrix(17.285489,0,0,17.244968,48.580457,49.06394)" />
    <path
       style="fill:#ffffff;stroke-width:1.39169"
       d=""
       id="path889"
       transform="matrix(17.285489,0,0,17.244968,48.580457,49.06394)" />
  </g>
</svg>
