<svg width="32" height="32" enable-background="new 0 0 512 512" version="1.1" viewBox="0 0 512 512" xmlns="http://www.w3.org/2000/svg">
 <path d="m512 375v-318h-512v318h184.77v50h-49.267v30h241v-30h-49.267v-50zm-214.77 50h-82.467v-50h82.467zm-267.23-80v-258h452v258h-452z"/>
 <path d="m197.26 278.37 21.169 21.258c18.28-18.206 56.951-18.204 75.231 0l21.169-21.258c-29.935-29.81-87.586-29.857-117.57 0z"/>
 <path d="m330.77 249.56 21.169-21.258c-48.396-48.196-143.4-48.194-191.79 0l21.169 21.258c37.014-36.861 112.44-36.863 149.45 0z"/>
 <path d="m373.95 201.62 21.169-21.258c-70.188-69.896-207.96-69.896-278.15 0l21.169 21.258c58.402-58.16 177.41-58.16 235.81 0z"/>
</svg>
