<svg width="32" height="32" enable-background="new 0 0 24 24" version="1.1" viewBox="0 0 24 24" xml:space="preserve" xmlns="http://www.w3.org/2000/svg"><g transform="matrix(1.0388 0 0 1.0388 -.51743 -.56937)"><g id="Lozenge_4_"><path d="m12 20.6c-0.2 0-5.8-0.1-7.5-0.2h-0.3c-0.6-0.1-1.6-0.2-2.4-1.1-0.7-0.8-1-2.4-1-2.5s-0.2-1.9-0.2-3.8v-1.7c0-1.9 0.2-3.7 0.2-3.8 0-0.2 0.3-1.8 1-2.6 0.9-1 1.9-1.1 2.4-1.1h0.1c3.1-0.2 7.7-0.2 7.8-0.2s4.7 0 7.7 0.2h0.1c0.5 0 1.5 0.1 2.4 1.1 0.7 0.8 1 2.4 1 2.5s0.2 1.9 0.2 3.8v1.7c0 1.9-0.2 3.7-0.2 3.8 0 0.2-0.3 1.8-1 2.6-0.9 1-1.9 1.1-2.4 1.1h-0.1c-3.1 0.2-7.8 0.2-7.8 0.2zm0-16.2c-0.1 0-4.6 0-7.7 0.2h-0.1c-0.4 0-1.1 0.1-1.8 0.8-0.4 0.6-0.6 1.7-0.7 2.1 0 0-0.2 1.8-0.2 3.6v1.7c0 1.8 0.2 3.6 0.2 3.7 0.1 0.4 0.3 1.5 0.7 2 0.6 0.6 1.3 0.7 1.8 0.8h0.3c1.7 0.2 7.2 0.2 7.4 0.2 0.1 0 4.7 0 7.7-0.2h0.1c0.4 0 1.1-0.1 1.7-0.8 0.5-0.5 0.7-1.6 0.7-2 0 0 0.2-1.8 0.2-3.6v-1.7c0-1.8-0.2-3.6-0.2-3.7-0.1-0.4-0.3-1.5-0.7-2-0.6-0.7-1.3-0.8-1.8-0.8h-0.1c-2.9-0.3-7.4-0.3-7.5-0.3zm-2.3 11.1c-0.1 0-0.2 0-0.3-0.1-0.2-0.1-0.2-0.3-0.2-0.4v-6.4c0-0.2 0.1-0.3 0.2-0.4 0.2-0.2 0.4-0.2 0.6-0.1l5.9 3.2c0.2 0.1 0.3 0.3 0.3 0.4 0 0.2-0.1 0.4-0.3 0.4l-5.9 3.3c-0.1 0.1-0.2 0.1-0.3 0.1zm0.5-6.1v4.8l4.4-2.4z"/></g></g></svg>
