<svg enable-background="new 0 0 32 32" version="1.1" viewBox="0 0 32 32" xml:space="preserve" xmlns="http://www.w3.org/2000/svg"><g id="Favorite"><path d="m31.754 10.29c-0.10573-0.42293-0.52866-0.63439-0.95159-0.63439h-9.5159l-4.335-8.8815c-0.21146-0.42293-0.52866-0.63439-0.95159-0.63439s-0.74013 0.21146-0.95159 0.63439l-4.335 8.8815h-9.5159c-0.42293 0-0.84586 0.21146-0.95159 0.63439-0.21146 0.42293-0.10573 0.84586 0.21146 1.1631l6.9783 8.0356-3.0662 10.996c-0.10573 0.42293 0 0.84586 0.3172 1.0573 0.3172 0.21146 0.74013 0.3172 1.1631 0.10573l10.15-4.8637 10.573 5.0751c-0.02485-1.426 0 0 0 0 0.52866 0 1.0573-0.42293 1.0573-1.0573 0-0.21146 0-0.3172-0.10573-0.52866l-2.9605-10.89 6.9783-8.0356c0.3172-0.21146 0.42293-0.74012 0.21146-1.0573z" fill="#fe9803" style="stroke-width:1.0573"/></g></svg>
