<svg id="Icons" width="24" height="24" version="1.1" viewBox="0 0 32 32" xml:space="preserve" xmlns="http://www.w3.org/2000/svg"><style type="text/css">
	.st0{fill:none;stroke:#000000;stroke-width:2;stroke-linecap:round;stroke-linejoin:round;stroke-miterlimit:10;}
</style><g transform="matrix(1.2271,0,0,1.2271,-3.6333,-3.6333)"><path d="m14 3h-10c-0.6 0-1 0.4-1 1v10c0 0.6 0.4 1 1 1h10c0.6 0 1-0.4 1-1v-10c0-0.6-0.4-1-1-1z"/><path d="m14 17h-10c-0.6 0-1 0.4-1 1v10c0 0.6 0.4 1 1 1h10c0.6 0 1-0.4 1-1v-10c0-0.6-0.4-1-1-1z"/><path d="m28 3h-10c-0.6 0-1 0.4-1 1v10c0 0.6 0.4 1 1 1h10c0.6 0 1-0.4 1-1v-10c0-0.6-0.4-1-1-1z"/><path d="m28 17h-10c-0.6 0-1 0.4-1 1v10c0 0.6 0.4 1 1 1h10c0.6 0 1-0.4 1-1v-10c0-0.6-0.4-1-1-1z"/></g></svg>
