<svg width="32" height="32" version="1.1" viewBox="0 0 89.6 89.6" xml:space="preserve" xmlns="http://www.w3.org/2000/svg"><g transform="matrix(.98005 0 0 .98005 5.5981 .69786)"><path d="m65 60c-3.436 0-6.592 1.168-9.121 3.112l-26.096-15.657c0.131-0.801 0.217-1.618 0.217-2.455 0-0.839-0.086-1.654-0.217-2.456l26.096-15.657c2.529 1.946 5.685 3.113 9.121 3.113 8.283 0 15-6.717 15-15s-6.717-15-15-15-15 6.717-15 15c0 0.837 0.086 1.654 0.219 2.455l-26.096 15.657c-2.529-1.944-5.685-3.112-9.123-3.112-8.283 0-15 6.717-15 15s6.717 15 15 15c3.438 0 6.594-1.167 9.123-3.113l26.096 15.657c-0.133 0.802-0.219 1.617-0.219 2.456 0 8.283 6.717 15 15 15s15-6.717 15-15-6.717-15-15-15z"/></g></svg>
